<?xml version="1.0" encoding="utf-8"?>
<!-- Generator: Adobe Illustrator 17.0.0, SVG Export Plug-In . SVG Version: 6.00 Build 0)  -->
<!DOCTYPE svg PUBLIC "-//W3C//DTD SVG 1.1//EN" "http://www.w3.org/Graphics/SVG/1.1/DTD/svg11.dtd">
<svg version="1.1" id="Layer_1" xmlns="http://www.w3.org/2000/svg" xmlns:xlink="http://www.w3.org/1999/xlink" x="0px" y="0px"
	 width="300px" height="300px" viewBox="0 0 300 300" enable-background="new 0 0 300 300" xml:space="preserve">
<path d="M30.763,77.032c3.381-10.606,3.611-12.301-2.595-13.317l-2.71-0.45c-0.675-0.9-0.565-2.37,0.68-2.82
	c4.511,0.225,8.346,0.34,13.087,0.34c4.626,0,8.121-0.115,13.537-0.34c0.79,0.45,1.015,2.255,0,2.82l-3.046,0.45
	c-6.541,1.015-6.996,2.145-10.492,13.317l-13.202,41.971c-3.271,10.492-3.611,12.862,2.145,13.427l3.496,0.34
	c0.68,0.79,0.34,2.366-0.45,2.82c-5.531-0.225-9.366-0.34-14.217-0.34c-4.626,0-8.461,0.115-12.977,0.34
	c-0.9-0.565-0.9-2.145-0.11-2.82l3.496-0.34c5.416-0.565,6.546-1.92,10.156-13.427L30.763,77.032z"/>
<path d="M65.081,95.195l-10.492,30.689c-0.68,2.145-0.115,2.82,0.79,2.82c1.69,0,9.137-5.866,12.862-10.152
	c1.125,0,1.805,0.675,1.58,2.03c-6.321,9.366-16.927,16.247-21.663,16.247c-1.58,0-3.05-1.695-3.05-3.046
	c0-1.47,0.455-3.046,1.58-6.431l10.946-32.159h-8.801c-0.225-1.125,0.11-2.706,1.24-3.156l9.026-1.58l6.321-11.171
	c1.125-0.675,3.385-0.45,4.286,0.675l-3.271,11.061h12.297c0.79,1.125,0.115,3.381-1.355,4.171H65.081z"/>
<path d="M116.432,86.624c1.92-0.905,4.851,0.225,5.531,1.69c-1.695,4.176-11.511,29.109-15.122,39.376
	c-0.675,1.92-0.11,2.595,0.79,2.595c1.92,0,5.191-1.915,11.622-7.556c0.79,0,1.58,0.56,1.58,1.465
	c-4.741,6.316-12.752,12.637-18.953,12.637c-2.595,0-3.275-2.145-3.275-3.046c0-0.79,0.225-1.805,1.13-4.401l3.721-10.156
	l-0.335-0.11c-8.011,9.927-19.522,17.713-24.823,17.713c-3.16,0-4.966-3.16-4.966-6.321c0-2.595,2.485-11.622,9.931-21.888
	c5.416-7.446,10.267-11.957,14.892-14.552c4.401-2.485,7.221-3.275,10.156-3.275c1.24,0,2.03,0.34,2.706,0.68
	c0.45,0.225,1.695,1.24,2.255,2.37L116.432,86.624z M96.799,99.486c-7.221,6.431-14.102,21.208-14.102,29.219
	c0,1.355,0.675,2.145,1.69,2.145c1.13,0,4.515-1.465,10.946-7.331c8.576-8.011,13.312-17.717,15.117-24.373
	c-0.79-2.145-2.706-4.061-5.641-4.061C102.104,95.085,100.299,96.325,96.799,99.486z"/>
<path d="M130.538,154.051c-0.9,3.52-0.79,5.053,0.45,5.053c2.485,0,7.786-7.502,12.977-15.458c1.13-0.15,1.805,0.611,1.805,2.143
	c-2.935,7.651-10.041,20.355-19.408,20.355c-3.381,0-4.401-2.143-4.401-4.592c0-2.449,0.565-5.203,2.485-13.01l17.938-72.387
	c2.71-10.71,1.58-12.243-0.11-13.315l-2.03-1.221c-0.565-0.617-0.565-1.994,0-2.449c2.03-1.072,9.026-3.981,14.212-4.592
	l0.565,0.916c-1.465,5.508-2.595,9.795-6.656,26.324L130.538,154.051z"/>
<path d="M169.165,98.581c0.56-1.24,0.56-2.145-0.225-2.145c-0.79,0-3.725,1.355-9.366,5.981c-1.015-0.11-1.695-1.015-1.465-1.915
	c6.206-7.111,14.892-11.286,18.613-11.286c0.79,0,1.355,0.68,1.805,1.13c0.68,0.68,0.68,1.695-0.675,4.966l-13.427,32.044
	c-0.45,1.125-0.565,2.481,0.34,2.481c1.915,0,7.896-3.95,11.732-8.351c1.13,0.115,1.695,0.905,1.695,1.92
	c-1.695,3.271-13.317,13.427-21.098,13.427c-0.565,0-1.245-0.34-1.81-1.015c-0.675-0.79-1.015-1.805-0.45-3.046L169.165,98.581z
	 M182.592,70.262c0,3.496-2.485,6.996-5.871,6.996c-2.931,0-3.946-2.255-3.946-4.176c0-2.48,1.58-7.106,5.981-7.106
	C181.347,65.976,182.592,67.781,182.592,70.262z"/>
<path d="M222.771,95.875c0,4.511-4.396,5.301-5.526,5.301s-2.03-0.675-2.255-2.03c-0.34-2.82-0.225-6.206-3.95-6.206
	c-2.48,0-5.981,2.37-9.476,7.561c-3.725,5.526-7.221,14.667-7.561,23.353c-0.225,5.641,2.145,7.336,4.851,7.336
	c3.725,0,7.901-2.935,12.187-6.886c1.13-0.11,1.805,0.79,1.465,1.92c-4.401,5.756-11.507,10.606-18.618,10.606
	c-4.396,0-8.461-3.271-8.461-11.962c0-7.331,4.401-20.193,14.332-29.109c4.736-4.286,9.591-6.546,14.667-6.546
	C220.066,89.214,222.771,92.375,222.771,95.875z"/>
<g>
	<g>
		<path d="M96.716,158.595c3.725-9.587,4.741-13.312,4.741-15.117c0-1.58-1.015-2.255-3.16-2.595l-5.301-0.79
			c-0.68-0.675-0.455-2.37,0.56-2.82c5.306,0.225,8.916,0.34,12.412,0.34c2.485,0,5.191-0.115,7.561-0.34
			c-1.58,5.416-0.675,12.297,0.565,22.003l1.805,14.552c1.24,9.706,1.915,15.687,2.48,20.648h0.225
			c4.401-5.301,8.691-11.057,12.977-16.583l17.942-23.133c8.572-11.057,10.377-15.457,10.942-17.488
			c1.92,0.225,3.95,0.34,6.996,0.34c4.401,0,7.896-0.115,11.396-0.34c0.9,0.565,0.565,2.145,0,2.82l-2.595,0.45
			c-3.95,0.68-5.641,1.355-6.771,2.595c-1.58,1.805-2.706,5.306-5.191,13.992l-9.816,34.975c-2.37,8.351-3.16,12.301-3.271,14.107
			c-0.115,1.805,1.355,2.82,4.511,3.046l3.84,0.34c0.79,0.79,0.45,2.366-0.455,2.82c-4.176-0.225-9.251-0.34-14.442-0.34
			c-4.626,0-9.476,0.115-13.652,0.34c-0.79-0.68-0.79-2.37,0-2.82l2.935-0.34c2.03-0.225,4.966-0.905,6.206-2.145
			c1.355-1.355,3.611-7.221,5.756-14.327l9.022-29.564c1.81-5.751,3.385-10.832,4.29-14.212l-0.34-0.115
			c-1.58,2.03-4.401,5.866-10.492,13.767l-17.152,22.223c-6.431,8.351-13.087,16.927-18.053,25.388
			c-0.675,0.45-1.69,0.115-2.141-0.45c0.11-4.065-0.455-10.041-1.805-23.018l-3.836-37.91h-0.23
			c-1.805,4.061-3.496,8.801-5.186,13.427l-8.466,22.793c-5.416,14.552-6.766,18.953-6.766,21.098c0,1.24,0.56,2.141,3.385,2.595
			l4.851,0.79c0.45,0.675,0.225,2.255-0.34,2.82c-3.16-0.225-7.671-0.34-12.977-0.34c-4.626,0-8.461,0.115-12.072,0.34
			c-0.675-0.68-0.675-2.485,0.115-2.82l3.046-0.34c2.48-0.225,4.966-1.015,6.431-3.046c1.805-2.255,6.431-13.652,13.652-32.384
			L96.716,158.595z"/>
		<path d="M186.699,175.407c0.565-1.24,0.565-2.145-0.225-2.145s-3.725,1.355-9.366,5.981c-1.015-0.11-1.695-1.015-1.465-1.915
			c6.201-7.111,14.892-11.286,18.613-11.286c0.79,0,1.355,0.68,1.805,1.13c0.68,0.68,0.68,1.695-0.675,4.966l-13.427,32.044
			c-0.45,1.125-0.565,2.48,0.34,2.48c1.915,0,7.896-3.95,11.732-8.351c1.13,0.115,1.695,0.905,1.695,1.92
			c-1.695,3.271-13.317,13.427-21.103,13.427c-0.56,0-1.24-0.34-1.801-1.015c-0.68-0.79-1.02-1.805-0.455-3.046L186.699,175.407z
			 M200.125,147.088c0,3.496-2.485,6.996-5.871,6.996c-2.931,0-3.946-2.255-3.946-4.176c0-2.48,1.58-7.106,5.976-7.106
			C198.881,142.802,200.125,144.608,200.125,147.088z"/>
		<path d="M217.856,190.414l0.335,0.225c8.011-12.187,19.183-24.598,27.644-24.598c4.401,0,6.321,2.37,6.321,6.096
			c0,1.805-0.905,5.301-1.805,7.896c-2.035,5.641-10.156,24.033-10.496,24.938c-0.45,1.125-0.565,2.141,0.225,2.141
			c1.92,0,7.336-3.721,10.606-7.671c1.58-0.225,1.805,0.675,1.805,1.58c-4.286,7.221-13.202,12.637-19.403,12.637
			c-1.02,0-2.71-1.465-2.71-2.82c0-1.015,0.34-1.805,2.71-7.446c2.366-5.531,6.541-16.587,9.137-22.228
			c0.905-2.03,2.37-5.981,2.37-8.236c0-1.355-0.115-2.71-1.805-2.71c-2.71,0-9.366,5.641-15.572,13.427
			c-5.981,7.446-10.606,16.247-17.262,28.659c-0.565,1.015-1.015,1.355-2.03,1.355c-1.24,0-4.286-0.34-3.271-2.935l13.087-35.54
			c0.565-1.465,0.565-2.595-0.34-2.595c-2.595,0-6.541,2.37-10.267,5.641c-0.9,0-1.465-0.79-1.355-1.69
			c4.29-5.866,11.171-10.496,16.812-10.496c2.71,0,3.95,2.035,2.935,4.63L217.856,190.414z"/>
		<path d="M296.865,172.812c0,8.576-11.171,14.217-27.414,18.732c-0.79,1.915-1.58,5.526-1.58,10.041
			c0,3.836,2.37,6.431,5.411,6.431c4.061,0,6.881-2.26,11.851-6.546c1.011,0,1.69,0.905,1.461,1.92
			c-6.881,8.461-13.312,10.267-18.053,10.267c-6.762,0-9.132-6.321-9.132-11.847c0-7.111,4.511-20.873,16.812-30.349
			c5.861-4.515,10.262-5.42,13.533-5.42C294.265,166.041,296.865,169.881,296.865,172.812z M278.923,174.957
			c-4.401,4.741-6.991,9.927-8.351,13.202c7.451-2.255,10.951-4.401,15.122-8.351c3.5-3.271,4.401-6.656,4.401-7.671
			c0-1.13-0.56-2.595-2.591-2.595C285.923,169.541,282.983,170.556,278.923,174.957z"/>
	</g>
</g>
<circle fill="#FBB03B" cx="264.719" cy="134.474" r="15.581"/>
</svg>
