<?xml version="1.0" encoding="utf-8"?>
<!-- Generator: Adobe Illustrator 17.0.0, SVG Export Plug-In . SVG Version: 6.00 Build 0)  -->
<!DOCTYPE svg PUBLIC "-//W3C//DTD SVG 1.1//EN" "http://www.w3.org/Graphics/SVG/1.1/DTD/svg11.dtd">
<svg version="1.1" id="Layer_1" xmlns="http://www.w3.org/2000/svg" xmlns:xlink="http://www.w3.org/1999/xlink" x="0px" y="0px"
	 width="792px" height="539.973px" viewBox="0 0 792 539.973" enable-background="new 0 0 792 539.973" xml:space="preserve">
<g>
	<path fill="#FFFFFF" d="M633.539,222.478c3.602-6.569,9.314-12.104,10.065-20.886c-2.305,1.602-4.032,2.834-5.791,4.021
		c-5.414,3.652-11.177,6.033-17.928,5.5c-2.93-0.231-4.474-0.947-4.131-4.357c0.253-2.517,0.214-5.351-0.729-7.613
		c-0.824-1.976-3.001-3.463-4.798-4.894c-0.348-0.277-2.175,0.465-2.512,1.141c-3.57,7.146-10.586,8.466-17.013,10.801
		c-2.625-6.305-5.097-12.242-7.76-18.636c-7.712,3.059-12.578,8.938-18.415,13.322c-5.582-3.165-7.792-6.013-13.128-16.893
		c-7.051,0.728-11.313,5.677-15.489,10.685c-7.976-3.093-10.704-10.306-14.409-17.11c-4.114,1.17-7.63,3.138-8.903,7.345
		c-1.406,4.646-1.081,9.179,2.681,12.981c6.711,6.781,13.927,5.064,21.28,1.221c4.123,4.877,5.366,10.025,2.629,15.858
		c7.027,0.075,11.242-2.024,14.457-7.186c7.704,6.506,7.489,15.751,8.63,24.718c7.174-3.222,14.027-6.299,21.211-9.525
		c3.55,3.035,3.992,4.299,5.906,18.258c4.953-0.808,7.388-4.331,9.308-8.651c5.509,3.69,9.208,8.259,9.274,14.981
		c7.658-0.126,13.967-3.669,29.406-16.431c2.72,6.555,3.415,13.154-0.443,19.022c-4.555,6.928-10.144,13.171-15.138,19.82
		c-1.24,1.651-2.438,3.639-2.763,5.619c-1.877,11.415-6.654,20.988-16.521,27.564c-6.942,4.627-13.936,9.179-20.813,13.9
		c-3.993,2.741-6.874,6.316-6.869,11.684c-4.392-5.719-4.82-12.609-1.777-27.672c-9.603-2.517-18.192,0.179-26.534,5.431
		c1.583-4.433,3.281-8.232,4.288-12.206c2.293-9.041-0.223-15.561-8.087-20.588c-13.982-8.938-28.306-7.534-42.344-0.297
		c-11.764,6.066-20.417,15.571-27.116,26.872c-8.855,14.936-13.403,31.259-15.372,48.391c-0.069,0.603-0.155,1.205-0.298,2.31
		c-7.752-5.627-10.866-13.845-14.294-22.255c-19.149,19.004-19.652,42.981-19.099,67.986c-8.574-9.622-12.947-20.641-17.492-31.85
		c-21.84,21.821-25.086,48.505-21.086,77.779c-10.457-6.969-15.468-16.772-18.711-28.359c-7.337,6.536-13.143,13.476-15.956,22.565
		c-4.344,14.037-6.206,28.501-7.358,43.085c-0.104,1.318-0.214,2.635-0.384,4.723c-8.393-7.665-12.776-17.169-17.517-26.832
		c-7.761,6.488-14.096,13.792-16.563,23.273c-2.892,11.115-4.628,22.533-6.758,33.84c-0.466,2.476-0.479,5.037-0.794,8.632
		c-9.915-13.106-17.656-26.195-22.367-40.923c-4.699-14.691-5.191-29.859-4.358-45.684c-8.857,3.595-17.473,2.08-26.111,1.014
		c-7.853-0.969-15.395,0.254-23.031,4.351c0.665-1.91,1.289-3.203,1.558-4.566c0.872-4.433,2.341-8.905,2.262-13.338
		c-0.191-10.777-1.075-21.538,2.4-32.664c-3.922,1.274-7.12,2.352-10.343,3.352c-5.564,1.727-11.194,2.699-17.046,1.607
		c-9.17-1.711-17.782,0.492-26.197,3.916c-1.355,0.551-2.694,1.144-4.058,1.724c2.411-8.468,5.483-16.72,6.984-25.249
		c1.495-8.494,1.413-17.265,2.02-25.87c-8.022-0.88-36.712,3.075-48.252,6.517c0.471-1.425,0.802-2.486,1.171-3.534
		c2.968-8.443,4.737-16.953,2.746-25.982c-1.497-6.785,0.064-13.413,2.039-19.925c0.379-1.25,0.75-2.503,0.974-3.248
		c-12.081,0.791-24.119,1.415-36.121,2.454c-4.097,0.355-8.104,1.752-12.958,2.856c6.016-6.554,5.812-14.211,6.463-21.746
		c0.555-6.425,1.775-12.793,2.737-19.441c-5.15,0.93-10.158,1.835-15.48,2.797c3.451-3.733,6.625-7.167,10.296-11.137
		c-2.066-0.738-3.292-1.117-4.472-1.606c-9.731-4.031-19.58-7.809-29.135-12.224c-6.321-2.921-11.275-7.801-15.099-13.692
		c-0.706-1.087-1.253-2.278-2.134-3.901c13.117,1.211,25.515,0.6,37.048-4.645c8.082-3.676,15.677-8.42,24.332-13.147
		c-12.455-6.681-25.444-10.471-32.014-23.288c27.066,5.437,52.218,0.43,76.835-11.684c-11.14-8.147-24.566-12.894-32.544-25.696
		c27.402,9.665,52.604,2.844,77.661-5.48c2.951-0.98,5.663-2.68,9.076-4.332c-7.122-3.11-13.537-5.711-19.772-8.691
		c-6.212-2.969-12.06-6.512-14.578-13.777c9.186,7.051,19.415,5.046,29.613,4.065c16.673-1.605,32.494-6.172,47.723-12.989
		c1.191-0.533,2.332-1.179,3.709-1.881c-9.857-7.777-21.759-12.566-28.444-23.452c0.146-0.335,0.292-0.671,0.438-1.006
		c1.214,0.215,2.437,0.392,3.641,0.651c17.314,3.728,34.695,6.792,52.536,5.439c9.739-0.739,23.186-4.492,30.459-8.573
		c-8.896-9.276-20.804-15.882-25.591-28.916c27.743,11.943,56.083,16.161,85.793,9.492c-8.636-12.764-22.229-22.51-24.375-38.997
		c0.614-0.491,1.228-0.982,1.842-1.473c0.225,0.67,0.331,1.413,0.692,1.999c4.87,7.905,11.955,13.204,20.217,17.116
		c20.157,9.545,41.412,12.571,63.487,10.685c13.039-1.114,25.628-4.223,37.98-8.473c1.714-0.59,3.883-0.676,5.635-0.212
		c31.898,8.44,63.751,17.052,95.658,25.46c3.367,0.887,7.039,0.556,10.513,1.133c1.308,0.217,2.525,1.318,3.652,2.185
		c0.854,0.657,1.492,1.59,2.241,2.387c6.035,6.431,12.041,12.89,18.148,19.25c0.84,0.875,2.159,1.718,3.311,1.801
		c23.616,1.684,46.224,7.734,68.069,16.462c10.316,4.122,21.037,4.377,31.687,5.783c2.068,0.273,4.142,0.495,6.208,0.774
		c5.446,0.736,5.351,0.746,5.482,6.371c0.202,8.641-4.338,15.077-9.448,21.367c-1.313,1.616-2.434,3.685-2.825,5.704
		c-1.836,9.499-7.354,16.387-14.755,22.149c-1.79,1.394-3.445,3.14-4.677,5.039c-4.466,6.888-9.96,12.394-17.971,15.067
		c-1.009,0.337-1.868,1.712-2.397,2.8c-2.566,5.279-4.497,10.936-7.583,15.879C656.999,221.039,644.467,225.365,633.539,222.478z
		 M483.259,242.786c0.081,10.19-3.374,18.733-12.693,23.856c-4.061,2.232-8.485,3.795-12.668,5.82
		c-1.051,0.509-2.358,1.484-2.613,2.484c-1.883,7.364-3.822,14.735-5.174,22.206c-1.627,8.997-1.134,18.02,0.955,27.096
		c0.461-0.322,0.731-0.411,0.82-0.591c0.489-0.988,0.943-1.995,1.392-3.003c5.619-12.6,12.343-24.54,20.904-35.41
		c6.825-8.666,15.418-14.944,25.297-19.752c16.79-8.171,32.402-5.127,47.406,4.486c5.673,3.635,10.138,8.752,11.493,15.236
		c1.338,6.404,4.505,7.524,10.37,7.581c10.193,0.099,12.844,1.074,16.782-10.256c0.021-0.06,0.196-0.067,0.638-0.203
		c5.745,8.822-0.295,15.771-4.403,23.775c5.839-2.979,10.871-5.486,15.849-8.097c10.753-5.64,15.13-14.765,14.801-26.66
		c-0.094-3.406-1.648-5.376-4.611-5.496c-6.34-0.257-10.509-4.225-15.06-7.739c-2.109-1.629-4.379-3.104-6.735-4.35
		c-13.55-7.166-27.352-13.883-40.671-21.452c-12.988-7.381-24.342-16.974-33.948-28.513c-1.309-1.572-2.561-3.19-4.058-5.06
		c-2.593,8.106,1.072,14.71,4.023,22.112c-9.052-5.4-11.769-13.685-13.175-23.252c-8.207,8.112-8.925,18.474-11.884,27.21
		c-1.54-5.134-3.169-10.562-4.873-16.242c0.496-0.284,1.678-0.725,2.537-1.515c0.977-0.899,1.648-2.126,2.484-3.185
		c11.2-14.191,23.125-27.715,37.087-39.284c13.259-10.987,28.759-16.097,45.813-16.756c2.009-0.078,4.046,0.578,6.07,0.894
		c-0.061,0.248-0.121,0.495-0.182,0.743c-3.087,0.727-6.175,1.454-9.262,2.181c0.707,1.177,1.256,1.41,1.812,1.625
		c8.776,3.394,17.755,6.348,26.284,10.279c12.916,5.953,25.477,12.672,38.27,18.899c8.199,3.991,17.014,5.469,26.083,5.478
		c7.206,0.008,14.186-1.274,19.213-6.827c7.12-7.864,13.992-15.982,20.488-24.364c2.184-2.817,2.899-6.773,4.268-10.164
		c0.818,0.718,1.631,1.433,1.957,1.719c3.08-8.664,11.836-14.998,10.191-25.444c-8.028-0.434-15.905-0.86-23.869-1.29
		c0.704,6.579,4.191,9.505,9.862,8.968c3.128-0.296,6.424-0.782,8.403,2.793c-7.919,2.38-8.166,2.903-3.665,7.495
		c-4.394,3.61-7.765,2.995-10.889-1.339c-11.801-16.374-27.457-26.854-47.875-27.983c-31.728-1.755-60.835,7.388-88.004,23.337
		c-0.588,0.345-1.106,0.81-1.977,1.458c2.624,0.474,4.797,0.866,7.93,1.432c-9.872,2.55-18.675,4.301-27.126,7.108
		c-22.647,7.521-42.094,19.874-56.228,39.542c-1.706,2.374-2.237,5.579-3.397,8.364c-1.311,3.146-2.717,6.253-4.082,9.377
		c0.554-4.606,1.425-8.867,2.455-13.09c0.461-1.888,1.06-3.787,1.906-5.53c8.095-16.681,20.338-29.044,37.814-35.803
		c7.548-2.919,15.233-5.488,22.757-8.466c2.891-1.144,5.507-2.983,8.249-4.505c-0.111-0.362-0.222-0.725-0.333-1.087
		c-9.19-2.148-15.942-7.961-22.304-14.399c-2.155-2.18-4.444-4.233-6.742-6.265c-5.644-4.991-12.185-8.175-19.589-9.601
		c-0.566-0.109-1.079-0.494-2.237-1.048c1.359-0.171,1.961-0.289,2.567-0.318c25.488-1.203,50.975-2.421,76.465-3.57
		c4.385-0.198,5.526-0.887,5.411-5.272c-0.057-2.168-0.915-4.576-2.13-6.395c-2.227-3.336-5.869-4.531-9.727-5.329
		c-12.499-2.584-24.6-0.487-36.775,2.355c-6.394,1.492-13.029,2.115-19.595,2.62c-2.421,0.186-4.956-1.091-7.438-1.701
		c0.059-0.364,0.119-0.729,0.178-1.093c16.903,3.233,29.409-8.937,45.592-12.012c-2.104-1.58-3.201-2.506-4.395-3.282
		c-4.88-3.175-10.348-4.463-16.074-4.612c-11.533-0.301-23.074-0.338-34.601-0.774c-3.628-0.137-7.28-0.98-10.802-1.938
		c-1.672-0.455-3.063-1.94-4.582-2.958c16.168,0.554,18.015,0.458,22.528-1.979c-9.719-1.922-19.056-3.853-28.435-5.551
		c-1.812-0.328-3.928-0.139-5.668,0.478c-31.235,11.079-62.302,10.853-93.248-1.113c-0.795-0.307-1.659-0.433-2.975-0.766
		c4.469,8.221,11.269,13.189,19.158,18.189c-26.662,4.328-52.519,4.917-78.57,3.369c6.829,6.91,15.946,9.149,25.304,12.813
		c-26.669,7.089-52.911,11.958-80.494,14.401c1.27,0.849,1.641,1.143,2.052,1.365c13.101,7.054,27.34,10.02,41.961,11.475
		c1.2,0.119,2.784-0.745,3.748-1.633c3.921-3.611,7.669-7.409,11.727-11.378c0.977,6.033,0.87,5.914-2.876,9.262
		c-2.076,1.856-4.11,3.967-5.489,6.353c-3.672,6.354-6.978,12.919-10.627,19.77c18.447,7.012,37.074,12.118,56.577,2.115
		c-6.571,7.586-9.148,15.941-7.679,25.558c1.202,7.87,2.132,15.751-1.176,22.58c7.017-0.572,14.109-2.101,21.015-1.499
		c11.54,1.007,22.013-0.25,30.92-8.283c0.038-0.035,0.196,0.063,0.523,0.178c-0.631,1.174-1.267,2.308-1.859,3.466
		c-4.283,8.366-6.938,17.099-5.244,26.597c1.406,7.884,1.775,15.567-2.729,23.014c10.83-5.127,22.332-4.918,33.642-5.767
		c8.312-0.624,14.835-3.959,18.842-11.531c0.125-0.237,0.531-0.326,0.828-0.496c1.59,4.851,1.512,9.417-1.346,13.49
		c-5.077,7.234-5.698,15.09-4.988,23.537c0.406,4.825-0.094,9.789-0.725,14.62c-0.54,4.131-1.847,8.161-2.653,11.552
		c5.675-1.848,11.426-3.846,17.257-5.573c3.638-1.077,7.406-1.712,11.102-2.602c9.27-2.232,16.006-7.722,20.486-16.067
		C481.497,246.265,482.366,244.519,483.259,242.786z M294.417,317.668c-7.151,1.087-14.133,2.072-21.083,3.243
		c-2.889,0.487-5.752,1.238-8.555,2.101c-10.516,3.235-17.312,10.336-18.236,21.219c-0.925,10.894-0.203,21.927-0.203,31.935
		c8.404-1.038,17.212-2.101,26.011-3.225c3.643-0.465,7.33-0.803,10.891-1.647c11.444-2.713,14.657-8.156,11.852-19.604
		c-0.291-1.19-0.541-2.395-0.921-3.556c-2.507-7.649-2.509-15.429-1.223-23.267C293.359,322.369,293.956,319.902,294.417,317.668z
		 M238.175,431.13c8.65-0.401,17.623-0.242,26.437-1.347c17.266-2.166,27.513-13.042,28.892-30.418
		c0.606-7.64,0.102-15.368,0.102-23.511c-8.185,4.57-16.945,6.452-26.105,6.715c-2.323,0.067-4.651,0.255-6.957,0.549
		c-13.615,1.738-19.548,7.585-20.857,21.267C238.862,413.001,238.686,421.678,238.175,431.13z M260.008,313.447
		c7.428-0.898,13.984-1.667,20.531-2.495c2.674-0.338,5.35-0.713,7.995-1.226c14.795-2.871,21.198-9.982,22.061-24.979
		c0.564-9.809,0.935-19.602,4.827-28.837c0.043-0.102-0.251-0.347,0.228,0.278c-7.467,0.683-14.403,1.135-21.291,1.981
		c-29.425,3.611-34.63,17.686-32.414,36.005c0.074,0.608,0.132,1.222,0.261,1.82C263.472,301.866,263.932,307.662,260.008,313.447z
		 M303.776,409.787c5.381-1.242,11.038-2.657,16.742-3.841c9.499-1.971,18.934-4.047,27.319-9.295
		c6.976-4.366,11.211-10.475,12.121-18.73c0.577-5.235,0.957-10.493,1.629-15.715c0.476-3.701,1.291-7.358,2.011-11.349
		c-5.999,0.072-10.947,2.047-15.436,5.107c-6.813,4.644-14.247,7.543-22.371,8.797c-1.812,0.28-3.6,0.735-5.385,1.164
		c-9.71,2.334-15.557,8.635-16.462,18.363C303.143,392.891,303.776,401.626,303.776,409.787z M347.429,302.04
		c-6.26,0.339-12.893,0.316-19.423,1.125c-18.874,2.341-30.052,16.978-27,35.067c0.548,3.25,1.753,6.383,2.426,9.618
		c1.021,4.908,1.842,9.858,2.589,13.92c8.031-2.389,17.009-5.142,26.036-7.723c9.732-2.783,14.649-7.717,15.227-17.833
		C347.923,324.999,347.429,313.72,347.429,302.04z M331.941,197.364c-4.885,0.536-9.133,0.939-13.363,1.48
		c-6.551,0.838-13.193,1.318-19.607,2.78c-7.914,1.804-13.371,6.955-16.234,14.653c-4.628,12.446-2.998,25.607-4.862,38.521
		c7.957-1.513,15.505-2.587,22.848-4.463c5.529-1.413,10.989-3.452,16.131-5.936c6.791-3.28,10.307-8.996,10.78-16.727
		C328.259,217.47,327.415,207.047,331.941,197.364z M239.123,333.562c-8.118,0.677-15.603,0.946-22.978,1.988
		c-17.614,2.488-26.057,12.513-26.006,30.253c0.023,8.063,1.793,16.285-3.247,24.78c9.081-3.282,17.236-2.79,25.473-2.582
		c11.24,0.283,22.291-8.853,24.033-19.956c0.919-5.855,0.731-11.999,0.186-17.933C236.068,344.473,236.07,339.134,239.123,333.562z
		 M372.077,277.349c3.41-0.526,6.878-1.238,10.383-1.565c8.775-0.818,17.638-0.981,26.332-2.294
		c11.251-1.7,15.964-6.973,17.331-18.211c0.724-5.952,0.89-11.969,1.472-17.941c0.325-3.329,0.988-6.625,1.539-10.2
		c-11.982-0.468-23.372,0.25-34.433,4.152c-10.199,3.598-16.119,10.625-17.964,21.271
		C375.319,260.741,373.677,268.883,372.077,277.349z M317.855,296.296c6.619-3.133,14.003-3.055,21.559-2.684
		c3.762,0.185,8.082-0.282,11.311-2.016c9.078-4.874,15.118-12.502,16.46-23.026c1.154-9.053,1.851-18.163,2.702-26.763
		c-8.358,0.717-16.971,1.506-25.594,2.183c-15.889,1.248-24.544,15.868-25.033,26.963
		C318.888,279.341,318.336,287.721,317.855,296.296z M273.483,216.725c-8.369,4.472-17.236,4.159-26.045,4.47
		c-12.23,0.432-18.875,5.041-21.937,16.891c-3.163,12.24-5.085,24.802-7.497,36.954c8.046-1.816,16.424-3.59,24.737-5.633
		c3.913-0.962,7.801-2.196,11.524-3.733c8.812-3.639,14.472-10.124,15.831-19.683C271.454,236.432,272.336,226.807,273.483,216.725z
		 M202.181,329.212c9.614-0.906,18.866-1.641,28.077-2.717c3.373-0.394,6.748-1.33,9.953-2.485c8.188-2.95,13.012-9,13.429-17.605
		c0.501-10.338,0.119-20.719,0.119-30.908c-7.384,1.157-14.628,2.306-21.876,3.425c-13.385,2.066-21.736,9.703-24.626,22.885
		C205.267,310.88,203.851,320.079,202.181,329.212z M382.996,188.218c-6.953,0-13.054-0.003-19.155,0.001
		c-15.412,0.01-23.625,6.165-26.764,21.264c-2.101,10.109-3.081,20.451-4.472,30.056c6.355-1.022,12.832-2.087,19.317-3.099
		c5.559-0.868,11.218-1.293,16.67-2.596c9.74-2.327,14.171-7.127,14.735-17.15C383.854,207.34,383.159,197.918,382.996,188.218z
		 M383.868,327.336c1.04-2.7,1.791-4.382,2.341-6.128c1.873-5.951,3.857-11.783,3.197-18.309c-0.51-5.038,0.152-10.199,0.381-15.302
		c0.057-1.267,0.454-2.519,0.785-4.252c-3.105,0.303-5.665,0.409-8.174,0.822c-18.108,2.976-25.147,10.479-26.404,28.811
		c-0.718,10.472-0.808,20.987-1.167,31.098c6.587-0.869,13.503-1.622,20.36-2.733c6.272-1.016,12.654-1.875,18.673-3.791
		c7.422-2.364,14.169-12.994,14.293-21.125C399.055,317.057,391.975,322.233,383.868,327.336z M292.598,165.672
		c-0.54,0.047-0.914,0.028-1.26,0.118c-7.96,2.064-15.888,3.166-23.838-0.175c-0.837-0.352-2.164,0.048-3.117,0.449
		c-7.968,3.357-14.424,8.485-17.878,16.609c-4.076,9.587-7.856,19.3-11.744,28.967c-0.061,0.152,0.146,0.412,0.579,1.518
		c6.716,0.084,13.843,0.779,20.852,0.15C280.296,211.145,296.362,190.04,292.598,165.672z M198.943,300.581
		c-12.304,0.735-24.024,1.339-35.727,2.167c-7.814,0.553-12.6,5.338-13.796,12.622c-1.637,9.964-2.195,20.105-3.191,29.935
		c9.332-0.615,18.119-0.97,26.856-1.836c8.244-0.817,15.712-3.533,19.476-11.777C197.012,321.939,196.751,311.228,198.943,300.581z
		 M159.22,294.439c4.049,0,7.952,0.025,11.856-0.006c4.658-0.037,9.339,0.152,13.968-0.247c8.544-0.736,15.717-4.695,22.62-10.17
		c-1.586-0.465-2.658-0.78-3.898-1.144c9.988-9.272,10.737-21.093,8.241-28.896c-9.036,3.094-18.116,1.922-27.202-0.015
		c-1.547-0.33-3.171-0.318-4.762-0.41c-5.304-0.309-9.527,1.766-12.895,5.807c-4.151,4.981-6.333,10.803-6.931,17.146
		C159.645,282.557,159.524,288.652,159.22,294.439z M341.179,147.186c-7.913-1.19-15.506-2.366-23.115-3.43
		c-0.859-0.12-1.947,0.171-2.692,0.643c-8.609,5.458-14.162,12.68-15.388,23.324c-0.961,8.342-3.349,16.52-5.11,24.769
		c-0.164,0.767-0.379,1.523-0.521,2.087c9.223-0.785,18.247-1.455,27.246-2.373c3.025-0.308,6.064-1.004,8.958-1.946
		c5.334-1.738,8.859-5.441,9.463-11.101c0.465-4.353,0.499-8.812,0.15-13.178C339.652,159.495,338.561,153.046,341.179,147.186z
		 M318.19,416.329c-8.64,0.841-16.76,4.422-23.894,10.364c-4.646,3.87-8.004,8.526-9.213,14.633
		c-3.911,19.757,0.37,37.969,10.189,55.17c0.158,0.276,0.535,0.427,1.039,0.81c0.314-1.606,0.622-3.002,0.857-4.409
		c2.689-16.12,9.425-30.209,21.67-41.193c3.449-3.093,3.729-5.749,2.854-10.022C320.009,433.466,319.333,425.043,318.19,416.329z
		 M105.131,260.66c5.416,0.629,10.266,1.288,15.137,1.733c6.46,0.591,12.931,1.336,19.407,1.433
		c9.441,0.141,17.132-3.989,23.74-10.744c-1.998-0.508-3.666-0.932-5.751-1.462c5.6-5.712,11.667-10.291,14.176-18.141
		c-3.886-0.823-7.421-1.78-11.019-2.295c-11.712-1.677-23.605-5.463-34.652,2.69c-0.288-0.196-0.576-0.392-0.865-0.588
		c1.131-3.28,2.263-6.561,3.453-10.012c-4.702,1.042-7.918,3.995-9.897,8.058C114.156,240.988,109.734,250.78,105.131,260.66z
		 M230.602,199.848c-7.972,1.749-15.306,1.539-22.377-1.831c-0.829-0.395-2.155-0.017-3.167,0.284
		c-9.289,2.763-15.566,8.42-17.742,18.212c-2.225,10.016-4.15,20.189-11.897,28.398c3.586,0.916,6.565,1.542,9.46,2.441
		c9.832,3.055,18.91,0.935,27.551-3.965c1.026-0.582,1.965-1.856,2.316-3.001c2.383-7.793,5.887-14.797,12.797-19.62
		c0.106-0.074,0.013-0.431,0.013-1.438c-3.731,0.776-7.275,1.513-10.819,2.25c-0.24-0.35-0.481-0.699-0.721-1.049
		c3.106-2.881,6.358-5.623,9.277-8.682C228.294,208.699,230.278,204.932,230.602,199.848z M246.408,144.739
		c-6.434,0-12.484-0.494-18.401,0.181c-3.693,0.421-7.759,1.876-10.65,4.149c-6.322,4.971-10.321,11.712-11.623,19.85
		c-1.08,6.752-3.467,13.004-7.369,18.653c-0.233,0.337-0.284,0.799-0.506,1.459c3.164,0.509,6.074,0.875,8.939,1.46
		c5.04,1.029,10.033,2.294,15.081,3.274c6.753,1.311,11.813-0.858,13.352-6.584c2.521-9.38,8.769-15.657,15.979-21.367
		c1.086-0.86,2.144-1.756,3.216-2.635c-0.107-0.332-0.215-0.664-0.322-0.996c-5.005,0-10.011,0-15.479,0
		C242.101,156.607,247.104,152.362,246.408,144.739z M252.072,157.483c12.629,2.036,25.763,3.539,38.891,0.325
		c2.426-0.594,4.878-2.384,6.6-4.275c3.328-3.654,6.145-7.773,9.547-12.184c-3.918-0.496-7.754-1.172-11.618-1.417
		c-3.827-0.243-7.682-0.053-12.423-0.053c6.259-8.02,12.047-14.967,14.958-22.816c-6.865-1.218-13.545-2.497-20.266-3.511
		c-1.25-0.188-2.869,0.381-3.963,1.123c-9.931,6.734-15.798,16.131-18.133,27.872C254.698,147.407,253.357,152.192,252.072,157.483z
		 M105.39,300.714c7.325-0.502,14.684-0.705,21.956-1.605c5.438-0.673,10.939-1.766,16.066-3.623
		c2.523-0.914,5.451-3.662,6.128-6.144c1.744-6.398,2.337-13.111,3.439-20.009c-2.737,0.402-4.782,0.736-6.838,0.998
		c-7.94,1.011-15.818,1.542-23.759-0.484c-8.516-2.173-13.07,1.149-14.289,9.94C107.134,286.696,106.301,293.624,105.39,300.714z
		 M398.452,310.454c9.289-1.77,18.261-3.102,27.036-5.243c11.894-2.902,21.881-16.891,21.419-29.932
		c-4.308,1.484-8.538,2.624-12.487,4.39c-3.988,1.783-7.499,4.382-8.579,9.191c-0.403,0.004-0.807,0.008-1.21,0.012
		c-0.974-4.027-1.947-8.054-2.837-11.731c-4.776,1.527-9.623,3.72-14.691,4.531c-6.069,0.972-7.541,2.397-8.445,8.698
		C397.731,296.82,398.452,303.505,398.452,310.454z M376.284,410.22c0.129-0.315,0.325-0.62,0.379-0.948
		c3.427-21.129,11.508-39.957,27.144-55.074c0.575-0.556,1.26-1.437,1.214-2.121c-0.273-4.059-0.748-8.105-1.189-12.498
		c-1.166,0.564-1.726,0.788-2.239,1.091c-7.664,4.53-15.717,7.939-24.629,9.231c-1.248,0.181-2.758,1.847-3.291,3.171
		C365.887,372.419,370.952,391.325,376.284,410.22z M180.52,197.2c-0.097-0.375-0.195-0.75-0.292-1.125
		c5.337-4.061,9.313-9.125,12.477-16.418c-3.354,0.777-5.858,0.888-7.898,1.918c-5.763,2.91-11.41,6.072-16.945,9.399
		c-2.06,1.238-3.992,2.972-5.446,4.887c-6.557,8.634-12.923,17.414-18.938,25.573c7.452,1.495,15.21,3.079,22.982,4.589
		c1.554,0.302,3.161,0.334,4.746,0.47c2.856,0.246,4.346-0.758,4.927-3.891c1.984-10.697,6.398-20.076,15.746-26.456
		c0.12-0.082,0.065-0.419,0.169-1.261C188.08,195.681,184.3,196.44,180.52,197.2z M124.929,217.77
		c-5.567-3.424-9.798-3.104-14.801,0.62c-11.733,8.731-25.013,14.462-39.421,17.386c-2.094,0.425-4.188,0.845-6.899,1.392
		c10.058,12.084,23.649,13.992,37.339,16.515C104.705,238.67,110.361,225.446,124.929,217.77z M624.618,186.921
		c-1.724-1.459-2.922-2.93-4.47-3.707c-7.842-3.936-15.763-7.714-23.677-11.505c-9.258-4.435-18.338-9.335-27.867-13.089
		c-8.759-3.451-17.735-2.156-27.236,2.093c7.537,2.398,9.849,8.199,11.543,14.317c0.961-0.253,1.437-0.352,1.896-0.504
		c10.538-3.503,20.483-3.451,29.187,4.671c0.594,0.555,1.825,0.868,2.627,0.69c6.219-1.376,11.069,1.055,15.141,5.413
		c1.598,1.711,3.028,2.202,5.423,1.721c2.678-0.537,6.098-1.094,8.203,0.103C618.572,188.936,621.053,188.436,624.618,186.921z
		 M142.758,164.269c0.591,0.397,1.162,0.829,1.776,1.186c14.912,8.678,31.24,11.231,48.171,10.9c1.181-0.023,2.918-1.43,3.397-2.601
		c2.969-7.274,5.653-14.665,8.549-22.328C184.402,157.661,163.985,162.093,142.758,164.269z M165.598,184.251
		c-0.142-0.347-0.284-0.694-0.425-1.041c-10.137,2.609-20.523,4.517-30.344,8.013c-11.017,3.922-22.179,5.917-33.74,6.397
		c-0.997,0.041-1.99,0.184-3.901,0.367c2.122,1.422,3.38,2.375,4.737,3.156c11.218,6.454,23.756,8.942,36.141,11.838
		c0.799,0.187,2.239-0.732,2.831-1.54C148.175,201.517,154.585,190.834,165.598,184.251z M337.139,453.564
		c3.517-17.947,10.361-34.153,23.067-47.375c3.222-3.353,2.849-6.166,1.11-10.005c-1.732,1.468-3.227,2.699-4.682,3.975
		c-6.195,5.436-13.302,9.285-21.28,11.141c-3.776,0.878-4.947,2.688-5.52,6.312C327.791,430.529,330.951,442.273,337.139,453.564z
		 M416.855,362.563c0.478-0.752,0.689-0.942,0.723-1.158c2.623-17.093,10.326-31.478,22.939-43.285
		c0.628-0.588,1.153-1.65,1.145-2.486c-0.028-3.115-0.298-6.229-0.465-9.136c-4.572,2.206-8.855,5.517-13.543,6.253
		c-7.764,1.219-10.441,5.987-11.945,12.524c-0.301,1.309-0.776,2.577-1.135,3.874C411.449,340.425,412.602,351.401,416.855,362.563z
		 M516.165,104.228c4.896,4.494,9.007,8.334,13.193,12.091c3.914,3.513,7.758,7.131,11.906,10.352
		c4.65,3.61,9.939,3.963,15.283,1.565c3.883-1.742,7.653-3.74,12.109-5.937C552.094,113.341,536.689,103.087,516.165,104.228z
		 M204.134,130.517c-0.044,0.402-0.089,0.804-0.133,1.207c2.797,1.105,5.528,2.927,8.402,3.189
		c11.81,1.077,23.66,1.732,35.506,2.342c0.837,0.043,2.012-1.388,2.597-2.387c3.696-6.314,7.273-12.697,10.879-19.063
		c0.194-0.342,0.303-0.731,0.836-2.046C243.343,123.254,223.875,127.365,204.134,130.517z M581.707,77.209
		c-0.238,0.33-0.477,0.66-0.715,0.99c0.279,0.392,0.516,0.824,0.844,1.17c5.451,5.749,7.359,12.263,4.615,19.955
		c-0.315,0.883,0.109,2.605,0.81,3.172c2.56,2.07,5.382,3.815,8.188,5.74c-5.566,1.936-10.052-2.214-14.259-3.477
		c-1.77,5.058-3.417,9.767-5.055,14.446c18.009-6.807,36.034-14.157,55.929-14.602c-1.038-0.624-2.043-1.082-3.082-1.181
		c-6.095-0.578-12.221-1.664-18.291-1.426c-5.943,0.232-9.631-1.429-12.456-6.9c-2.437-4.719-6.077-8.896-9.616-12.935
		C586.8,80.084,584.041,78.833,581.707,77.209z M634.734,240.167c-8.296,7.566-17.233,11.898-27.081,14.517
		c-0.702,0.187-1.58,1.517-1.564,2.299c0.094,4.747,7.339,9.349,11.144,6.708C625.241,258.131,632.482,251.72,634.734,240.167z
		 M546.518,176.825c-1.316-7.23-4.933-10.198-12.141-10.047c-2.094,0.044-3.04,0.899-3.661,2.764
		c-1.878,5.639,0.273,12.381,5.22,16.448C539.453,182.945,542.935,179.929,546.518,176.825z M564.827,194.535
		c4.718-4.23,8.757-7.85,12.795-11.469c-5.711-6.01-12.832-7.114-20.231-2.617C559.826,185.063,562.285,189.721,564.827,194.535z
		 M661.496,195.736c-2.394-0.14-4.818-0.397-7.236-0.35c-0.711,0.014-1.808,0.746-2.044,1.397
		c-2.533,6.988-4.928,14.027-7.217,20.636C654.459,215.152,661.733,206.096,661.496,195.736z M623.408,206.476
		c6.734-3.017,12.954-6.175,14.595-14.489c-5.925-2.645-11.493-0.536-16.956,0.227C621.855,197.092,622.587,201.515,623.408,206.476
		z M547.129,104.927c-0.009,0.248-0.018,0.496-0.027,0.744c7.04,3.044,14.08,6.088,21.636,9.355c1.052-1.758,2.554-3.59,3.301-5.691
		c0.851-2.393,0.181-4.417-3.009-4.412C561.729,104.934,554.429,104.927,547.129,104.927z M566.361,238.7
		c4.47,1.881,8.528,3.685,12.678,5.24c0.705,0.264,2.554-0.441,2.612-0.868c0.385-2.853,0.594-5.761,0.453-8.631
		c-0.032-0.657-1.684-1.796-2.548-1.757C574.813,232.896,570.417,234.177,566.361,238.7z M554.519,229.241
		c2.011-4.913,1.573-7.839-1.327-11.085c-4.26,0.864-8.382,1.7-12.741,2.584C543.331,226.847,548.828,227.971,554.519,229.241z
		 M600.295,241.03c-2.893,3.544-5.538,6.785-8.326,10.199c0.959,0.8,1.888,1.793,3.009,2.467c3.486,2.094,5.131,1.492,6.799-2.221
		C603.472,247.702,602.426,244.36,600.295,241.03z M594.854,197.517c2.325-1.918,4.485-3.699,6.609-5.451
		c-4.394-6.077-7.726-7.592-11.563-5.812C591.422,189.716,592.943,193.174,594.854,197.517z M524.559,207.858
		c1.589,4.401,5.859,8.329,7.922,7.323c2.743-1.338,3.85-6.51,2.244-9.792C531.379,206.202,528.083,207.002,524.559,207.858z"/>
	<path fill="#FFFFFF" d="M462.418,105.263c-1.281-1.762-2.533-3.545-3.846-5.283c-16.047-21.241-36.654-27.59-64.071-18.311
		c-2.317,0.784-4.616,1.73-6.758,2.903c-16.719,9.158-34.919,11.873-53.618,12.463c-3.948,0.124-5.143,1.486-3.661,5.168
		c0.77,1.913,2.357,3.79,4.068,4.965c2.912,2,6.135,3.607,9.367,5.071c8.721,3.949,16.327,9.375,23.059,16.188
		c4.739,4.796,9.836,9.24,14.816,13.794c11.124,10.173,24.2,13.329,38.913,10.987c7.63-1.214,15.303-2.249,22.994-2.963
		c8.703-0.808,16.293,1.616,21.716,8.984c0.402,0.546,0.69,1.175,0.881,2.036c-7.786-6.754-16.713-5.947-25.821-4.483
		c-9.561,1.538-19.131,3.068-28.742,4.235c-9.475,1.151-18.187-1.375-25.342-7.664c-7.726-6.79-15.38-13.754-22.307-21.335
		c-6.808-7.451-14.435-13.191-23.994-16.394c-1.853-0.621-3.639-1.478-5.393-2.352c-7.334-3.655-10.702-10.774-8.615-18.698
		c0.243-0.924,1.954-1.913,3.099-2.078c9.347-1.345,18.756-2.29,28.071-3.815c3.895-0.638,7.608-2.384,11.907-3.79
		c-2.595-2.773-4.609-4.924-7.159-7.648c1.314-0.127,1.741-0.263,2.131-0.191c7.281,1.342,14.41,0.658,21.456-1.476
		c4.578-1.387,9.186-2.674,13.772-4.035c9.563-2.839,19.003-3.685,28.211,2.146c1.22-4.504,1.294-9.381,7.475-10.981
		c-2.708,6.202,1.079,9.531,4.775,12.827c4.945,4.41,10.092,8.598,14.931,13.119C459.438,93.049,462.036,98.646,462.418,105.263z"/>
	<path fill="#FFFFFF" d="M491.182,140.744c6.386-5.579,4.938-12.1,1.982-18.291c-3.796-7.95-11.53-9.468-19.797-10.828
		c1.153,8.352,9.211,10.264,13.252,15.763c-7.056-5.785-15.461-5.79-23.662-6.608c-5.782-0.577-9.644-4.331-13.534-8.193
		c-2.414-2.396-5.346-4.269-8.046-6.377c-0.258,0.294-0.516,0.587-0.774,0.881c1.468,3.74,2.936,7.48,4.386,11.175
		c-10.103-5.233-19.858-10.286-29.614-15.339c-0.267,0.118-0.533,0.236-0.8,0.354c2.029,3.566,4.059,7.132,6.708,11.788
		c-7.326-5.899-14.814-8.202-23.928-7.924c2.774,2.039,4.877,3.585,7.357,5.408c-0.846,0.283-1.136,0.482-1.402,0.454
		c-7.154-0.742-14.344-1.265-21.443-2.366c-3.879-0.602-7.727-1.907-11.343-3.464c-1.516-0.652-2.397-2.779-3.312-4.535
		c5.833,1.212,11.145,4.286,17.267,2.712c-1.122-3.724-2.23-7.402-3.338-11.079c0.4-0.264,0.799-0.528,1.199-0.791
		c7.109,6.58,15.306,10.387,25.189,10.618c0.238-4.968-0.864-10.191,4.331-13.865c5.282,8.487,12.169,14.874,22.806,16.467
		c1.199-5.337,3.255-10.111,7.561-13.074c4.016,5.414,7.619,11.091,12.052,16.021c4.665,5.187,11.188,7.116,18.374,8.088
		c-1.181-3.227-2.198-6.008-3.174-8.675c2.554,0.372,4.669,0.893,6.797,0.952c7.649,0.213,14.794,2.134,21.309,6.137
		c5.33,3.275,8.345,8.199,9.342,14.325c0.749,4.607-1.492,7.775-5.266,10.053C498.339,142.538,494.958,143.421,491.182,140.744z"/>
	<path fill="#FFFFFF" d="M673.141,175.882c-6.839,2.328-13.513,1.99-19.778-1.369c-3.313-1.776-6.392-4.117-9.251-6.581
		c-4.36-3.758-8.609-7.678-12.602-11.821c-10.763-11.167-24.185-15.88-39.298-16.534c-5.209-0.225-10.436-0.036-15.698-0.358
		c5.856-2.966,12.156-4.14,18.569-4.604c14.567-1.053,27.447,2.677,37.56,13.827c4.529,4.993,9.114,9.937,13.59,14.977
		C653.385,171.472,661.509,177.348,673.141,175.882z"/>
	<path fill="#FFFFFF" d="M387.464,129.903c-2.361-2.181-4.459-4.239-6.687-6.142c-2.022-1.727-4.089-2.582-5.604,1.734
		c-0.865-2.075-1.702-3.314-1.867-4.637c-0.341-2.738,1.95-4.629,4.094-3.082c4.599,3.318,8.836,3.567,14.263,1.824
		c2.788-0.895,7.02,0.852,9.912,2.566c4.282,2.539,8.065,5.982,11.835,9.297c1.753,1.541,3.274,1.993,5.571,1.499
		c9.883-2.129,19.852-3.085,29.965-1.727c7.709,1.035,12.766,6.022,18.012,11.185c-0.492,0.265-0.632,0.388-0.68,0.359
		c-16.106-9.755-33.103-8.199-50.243-3.781c-2.656,0.685-4.185,0.198-6.018-1.746c-3.357-3.561-6.913-6.983-10.702-10.077
		C392.896,121.932,391.22,122.394,387.464,129.903z"/>
	<path fill="#FFFFFF" d="M591.432,274.295c-3.45-0.391-6.687-0.243-9.554-1.202c-4.391-1.468-8.753-3.318-12.734-5.671
		c-18.688-11.045-37.254-22.299-55.827-33.538c-1.981-1.199-3.988-2.556-5.507-4.263c-1.695-1.903-2.847-4.29-3.783-6.797
		c6.07,6.489,14.016,9.883,21.322,14.236c15.913,9.481,31.688,19.199,47.701,28.507C578.689,268.845,584.859,271.21,591.432,274.295
		z"/>
	<path fill="#FFFFFF" d="M610.012,127.399c15.21-3.616,30.433-5.518,45.758-1.039c7.163,2.094,13.105,6.303,17.688,12.044
		c4.447,5.57,8.257,11.649,11.777,18.167C666.732,129.419,639.899,124.614,610.012,127.399z"/>
	<path fill="#FFFFFF" d="M424.001,176.435c10.6-1.964,20.539-4.635,23.98-16.588c5.486,5.152,5.313,11.259-0.012,15.306
		C440.941,180.495,430.557,181.169,424.001,176.435z"/>
</g>
</svg>
